<svg xmlns="http://www.w3.org/2000/svg" viewBox="0 0 270 270">
  <path d="M99.4 151.2c0 7.5-6.1 13.5-13.5 13.5s-13.5-6.1-13.5-13.5 6.1-13.5 13.5-13.5h13.5v13.5z" fill="#E01E5A"/>
  <path d="M106.2 151.2c0-7.5 6.1-13.5 13.5-13.5s13.5 6.1 13.5 13.5v33.9c0 7.5-6.1 13.5-13.5 13.5s-13.5-6.1-13.5-13.5v-33.9z" fill="#E01E5A"/>
  <path d="M119.7 99.4c-7.5 0-13.5-6.1-13.5-13.5s6.1-13.5 13.5-13.5 13.5 6.1 13.5 13.5v13.5h-13.5z" fill="#36C5F0"/>
  <path d="M119.7 106.2c7.5 0 13.5 6.1 13.5 13.5s-6.1 13.5-13.5 13.5H85.8c-7.5 0-13.5-6.1-13.5-13.5s6.1-13.5 13.5-13.5h33.9z" fill="#36C5F0"/>
  <path d="M171.6 119.7c0-7.5 6.1-13.5 13.5-13.5 7.5 0 13.5 6.1 13.5 13.5s-6.1 13.5-13.5 13.5h-13.5v-13.5z" fill="#2EB67D"/>
  <path d="M164.8 119.7c0 7.5-6.1 13.5-13.5 13.5-7.5 0-13.5-6.1-13.5-13.5V85.8c0-7.5 6.1-13.5 13.5-13.5s13.5 6.1 13.5 13.5v33.9z" fill="#2EB67D"/>
  <path d="M151.3 171.6c7.5 0 13.5 6.1 13.5 13.5 0 7.5-6.1 13.5-13.5 13.5-7.5 0-13.5-6.1-13.5-13.5v-13.5h13.5z" fill="#ECB22E"/>
  <path d="M151.3 164.8c-7.5 0-13.5-6.1-13.5-13.5 0-7.5 6.1-13.5 13.5-13.5h33.9c7.5 0 13.5 6.1 13.5 13.5 0 7.5-6.1 13.5-13.5 13.5h-33.9z" fill="#ECB22E"/>
</svg>
